STARTFONT 2.1
FONT -artwiz-fkp-medium-r-normal--16-160-75-75-m-80-ISO8859-1
SIZE 16 75 75
FONTBOUNDINGBOX 8 16 0 -4
STARTPROPERTIES 21
POINT_SIZE 160
WEIGHT 10
RESOLUTION 99
RESOLUTION_X 75
RESOLUTION_Y 75
X_HEIGHT 10
QUAD_WIDTH 8
FONT_ASCENT 12
FONT_DESCENT 4
FOUNDRY "artwiz"
FAMILY_NAME "fkp"
WEIGHT_NAME "medium"
SLANT "r"
SETWIDTH_NAME "normal"
ADD_STYLE_NAME ""
PIXEL_SIZE 16
SPACING "m"
AVERAGE_WIDTH 80
CHARSET_REGISTRY "ISO8859"
CHARSET_ENCODING "1"
_XMBDFED_INFO "Edited with xmbdfed 4.5."
ENDPROPERTIES
CHARS 256
STARTCHAR char0
ENCODING 0
SWIDTH 480 0
DWIDTH 8 0
BBX 7 9 0 0
BITMAP
7C
C6
C6
DE
DE
DE
DC
C0
7C
ENDCHAR
STARTCHAR char1
ENCODING 1
SWIDTH 480 0
DWIDTH 8 0
BBX 8 10 0 0
BITMAP
3C
42
81
A5
81
81
A5
99
42
3C
ENDCHAR
STARTCHAR char2
ENCODING 2
SWIDTH 480 0
DWIDTH 8 0
BBX 8 10 0 0
BITMAP
3C
7E
FF
DB
FF
FF
DB
E7
7E
3C
ENDCHAR
STARTCHAR char3
ENCODING 3
SWIDTH 480 0
DWIDTH 8 0
BBX 7 8 0 0
BITMAP
66
FE
FE
FE
FE
7E
3C
18
ENDCHAR
STARTCHAR char4
ENCODING 4
SWIDTH 480 0
DWIDTH 8 0
BBX 7 7 0 1
BITMAP
18
3C
7E
FE
7E
3C
18
ENDCHAR
STARTCHAR char5
ENCODING 5
SWIDTH 480 0
DWIDTH 8 0
BBX 8 9 0 0
BITMAP
18
3C
3C
5A
FF
FF
5A
18
3C
ENDCHAR
STARTCHAR char6
ENCODING 6
SWIDTH 480 0
DWIDTH 8 0
BBX 8 9 0 0
BITMAP
18
3C
7E
FF
FF
FF
5A
18
3C
ENDCHAR
STARTCHAR char7
ENCODING 7
SWIDTH 480 0
DWIDTH 8 0
BBX 4 4 2 2
BITMAP
60
F0
F0
60
ENDCHAR
STARTCHAR char8
ENCODING 8
SWIDTH 480 0
DWIDTH 8 0
BBX 8 16 0 -4
BITMAP
FF
FF
FF
FF
FF
FF
E7
C3
C3
E7
FF
FF
FF
FF
FF
FF
ENDCHAR
STARTCHAR char9
ENCODING 9
SWIDTH 480 0
DWIDTH 8 0
BBX 6 6 1 1
BITMAP
78
CC
84
84
CC
78
ENDCHAR
STARTCHAR char10
ENCODING 10
SWIDTH 480 0
DWIDTH 8 0
BBX 8 16 0 -4
BITMAP
FF
FF
FF
FF
FF
C3
99
BD
BD
99
C3
FF
FF
FF
FF
FF
ENDCHAR
STARTCHAR char11
ENCODING 11
SWIDTH 480 0
DWIDTH 8 0
BBX 7 10 0 0
BITMAP
0E
06
0C
18
7E
C2
C2
C2
C6
7C
ENDCHAR
STARTCHAR char12
ENCODING 12
SWIDTH 480 0
DWIDTH 8 0
BBX 6 10 1 0
BITMAP
FC
84
84
8C
F8
30
30
FC
30
30
ENDCHAR
STARTCHAR char13
ENCODING 13
SWIDTH 480 0
DWIDTH 8 0
BBX 7 10 1 0
BITMAP
08
0C
0E
0A
08
08
08
78
F8
70
ENDCHAR
STARTCHAR char14
ENCODING 14
SWIDTH 480 0
DWIDTH 8 0
BBX 7 11 0 -1
BITMAP
18
1C
1E
16
12
12
72
F2
62
0E
1E
ENDCHAR
STARTCHAR char15
ENCODING 15
SWIDTH 480 0
DWIDTH 8 0
BBX 8 9 0 0
BITMAP
18
DB
7E
3C
FF
3C
7E
DB
18
ENDCHAR
STARTCHAR char16
ENCODING 16
SWIDTH 480 0
DWIDTH 8 0
BBX 6 11 1 0
BITMAP
80
C0
E0
F0
F8
FC
F8
F0
E0
C0
80
ENDCHAR
STARTCHAR char17
ENCODING 17
SWIDTH 480 0
DWIDTH 8 0
BBX 6 11 1 0
BITMAP
04
0C
1C
3C
7C
FC
7C
3C
1C
0C
04
ENDCHAR
STARTCHAR char18
ENCODING 18
SWIDTH 480 0
DWIDTH 8 0
BBX 6 8 1 1
BITMAP
30
78
FC
30
30
30
30
FC
ENDCHAR
STARTCHAR char19
ENCODING 19
SWIDTH 480 0
DWIDTH 8 0
BBX 6 10 1 0
BITMAP
CC
FC
FC
FC
FC
CC
CC
00
CC
CC
ENDCHAR
STARTCHAR char20
ENCODING 20
SWIDTH 480 0
DWIDTH 8 0
BBX 8 10 0 0
BITMAP
7F
DB
DB
DB
7B
3B
1F
1B
1B
1B
ENDCHAR
STARTCHAR char21
ENCODING 21
SWIDTH 480 0
DWIDTH 8 0
BBX 7 11 0 0
BITMAP
1E
30
78
DC
CE
E6
72
3A
1E
0C
78
ENDCHAR
STARTCHAR char22
ENCODING 22
SWIDTH 480 0
DWIDTH 8 0
BBX 6 4 1 0
BITMAP
FC
FC
FC
FC
ENDCHAR
STARTCHAR char23
ENCODING 23
SWIDTH 480 0
DWIDTH 8 0
BBX 6 9 1 1
BITMAP
30
78
FC
30
30
30
FC
78
30
ENDCHAR
STARTCHAR char24
ENCODING 24
SWIDTH 480 0
DWIDTH 8 0
BBX 6 8 1 0
BITMAP
20
70
F8
FC
70
70
70
70
ENDCHAR
STARTCHAR char25
ENCODING 25
SWIDTH 480 0
DWIDTH 8 0
BBX 6 8 1 0
BITMAP
70
70
70
70
FC
F8
70
20
ENDCHAR
STARTCHAR char26
ENCODING 26
SWIDTH 480 0
DWIDTH 8 0
BBX 7 5 0 2
BITMAP
10
18
FC
FE
FC
ENDCHAR
STARTCHAR char27
ENCODING 27
SWIDTH 480 0
DWIDTH 8 0
BBX 7 5 0 2
BITMAP
10
30
7E
FE
7E
ENDCHAR
STARTCHAR char28
ENCODING 28
SWIDTH 480 0
DWIDTH 8 0
BBX 0 0 0 0
BITMAP
ENDCHAR
STARTCHAR char29
ENCODING 29
SWIDTH 480 0
DWIDTH 8 0
BBX 7 5 0 2
BITMAP
24
66
FE
FE
66
ENDCHAR
STARTCHAR char30
ENCODING 30
SWIDTH 480 0
DWIDTH 8 0
BBX 7 7 0 1
BITMAP
10
38
38
7C
7C
FE
FE
ENDCHAR
STARTCHAR char31
ENCODING 31
SWIDTH 480 0
DWIDTH 8 0
BBX 7 7 0 1
BITMAP
FE
7C
7C
38
38
10
10
ENDCHAR
STARTCHAR char32
ENCODING 32
SWIDTH 480 0
DWIDTH 8 0
BBX 0 0 0 0
BITMAP
ENDCHAR
STARTCHAR char33
ENCODING 33
SWIDTH 480 0
DWIDTH 8 0
BBX 4 10 2 0
BITMAP
60
F0
F0
F0
F0
60
60
00
60
60
ENDCHAR
STARTCHAR char34
ENCODING 34
SWIDTH 480 0
DWIDTH 8 0
BBX 6 3 1 7
BITMAP
FC
D8
B0
ENDCHAR
STARTCHAR char35
ENCODING 35
SWIDTH 480 0
DWIDTH 8 0
BBX 7 9 0 0
BITMAP
6C
FE
6C
6C
6C
6C
FE
6C
6C
ENDCHAR
STARTCHAR char36
ENCODING 36
SWIDTH 480 0
DWIDTH 8 0
BBX 7 12 0 -1
BITMAP
10
7C
D6
D0
70
38
1C
16
16
D6
7C
10
ENDCHAR
STARTCHAR char37
ENCODING 37
SWIDTH 480 0
DWIDTH 8 0
BBX 7 8 0 0
BITMAP
DA
76
0C
18
30
6E
DA
0E
ENDCHAR
STARTCHAR char38
ENCODING 38
SWIDTH 480 0
DWIDTH 8 0
BBX 7 10 0 0
BITMAP
38
6C
6C
38
70
D8
CE
CC
DC
76
ENDCHAR
STARTCHAR char39
ENCODING 39
SWIDTH 480 0
DWIDTH 8 0
BBX 2 3 2 7
BITMAP
40
40
C0
ENDCHAR
STARTCHAR char40
ENCODING 40
SWIDTH 480 0
DWIDTH 8 0
BBX 4 10 2 0
BITMAP
30
60
60
C0
C0
C0
C0
60
60
30
ENDCHAR
STARTCHAR char41
ENCODING 41
SWIDTH 480 0
DWIDTH 8 0
BBX 4 10 2 0
BITMAP
C0
60
60
30
30
30
30
60
60
C0
ENDCHAR
STARTCHAR char42
ENCODING 42
SWIDTH 480 0
DWIDTH 8 0
BBX 7 5 0 2
BITMAP
18
FE
38
38
6C
ENDCHAR
STARTCHAR char43
ENCODING 43
SWIDTH 480 0
DWIDTH 8 0
BBX 6 5 1 2
BITMAP
30
30
FC
30
30
ENDCHAR
STARTCHAR char44
ENCODING 44
SWIDTH 480 0
DWIDTH 8 0
BBX 3 3 2 -1
BITMAP
60
60
C0
ENDCHAR
STARTCHAR char45
ENCODING 45
SWIDTH 480 0
DWIDTH 8 0
BBX 6 1 1 4
BITMAP
FC
ENDCHAR
STARTCHAR char46
ENCODING 46
SWIDTH 480 0
DWIDTH 8 0
BBX 2 2 3 0
BITMAP
C0
C0
ENDCHAR
STARTCHAR char47
ENCODING 47
SWIDTH 480 0
DWIDTH 8 0
BBX 5 8 1 0
BITMAP
18
10
30
20
60
40
C0
80
ENDCHAR
STARTCHAR char48
ENCODING 48
SWIDTH 480 0
DWIDTH 8 0
BBX 7 10 0 0
BITMAP
3C
66
C6
C6
D6
D6
C6
C6
CC
78
ENDCHAR
STARTCHAR char49
ENCODING 49
SWIDTH 480 0
DWIDTH 8 0
BBX 4 10 1 0
BITMAP
30
70
F0
30
30
30
30
30
30
30
ENDCHAR
STARTCHAR char50
ENCODING 50
SWIDTH 480 0
DWIDTH 8 0
BBX 7 10 0 0
BITMAP
7C
C6
06
06
0C
18
30
60
C0
FE
ENDCHAR
STARTCHAR char51
ENCODING 51
SWIDTH 480 0
DWIDTH 8 0
BBX 7 10 0 0
BITMAP
7C
C6
06
06
1C
06
06
06
CC
78
ENDCHAR
STARTCHAR char52
ENCODING 52
SWIDTH 480 0
DWIDTH 8 0
BBX 7 10 0 0
BITMAP
0C
1C
3C
6C
CC
CC
FE
0C
0C
0C
ENDCHAR
STARTCHAR char53
ENCODING 53
SWIDTH 480 0
DWIDTH 8 0
BBX 7 10 0 0
BITMAP
FE
C0
C0
FC
06
06
06
06
CC
78
ENDCHAR
STARTCHAR char54
ENCODING 54
SWIDTH 480 0
DWIDTH 8 0
BBX 7 10 0 0
BITMAP
3C
60
C0
C0
FC
C6
C6
C6
CC
78
ENDCHAR
STARTCHAR char55
ENCODING 55
SWIDTH 480 0
DWIDTH 8 0
BBX 7 10 0 0
BITMAP
FE
06
0C
0C
18
18
30
30
30
30
ENDCHAR
STARTCHAR char56
ENCODING 56
SWIDTH 480 0
DWIDTH 8 0
BBX 7 10 0 0
BITMAP
3C
66
C6
C6
7C
C6
C6
C6
CC
78
ENDCHAR
STARTCHAR char57
ENCODING 57
SWIDTH 480 0
DWIDTH 8 0
BBX 7 10 0 0
BITMAP
3C
66
C6
C6
C6
7E
06
06
0C
78
ENDCHAR
STARTCHAR char58
ENCODING 58
SWIDTH 480 0
DWIDTH 8 0
BBX 2 7 3 1
BITMAP
C0
C0
00
00
00
C0
C0
ENDCHAR
STARTCHAR char59
ENCODING 59
SWIDTH 480 0
DWIDTH 8 0
BBX 3 8 2 0
BITMAP
60
60
00
00
00
60
60
C0
ENDCHAR
STARTCHAR char60
ENCODING 60
SWIDTH 480 0
DWIDTH 8 0
BBX 6 9 1 0
BITMAP
0C
18
30
60
C0
60
30
18
0C
ENDCHAR
STARTCHAR char61
ENCODING 61
SWIDTH 480 0
DWIDTH 8 0
BBX 6 4 1 3
BITMAP
FC
00
00
FC
ENDCHAR
STARTCHAR char62
ENCODING 62
SWIDTH 480 0
DWIDTH 8 0
BBX 6 9 1 0
BITMAP
C0
60
30
18
0C
18
30
60
C0
ENDCHAR
STARTCHAR char63
ENCODING 63
SWIDTH 480 0
DWIDTH 8 0
BBX 7 10 0 0
BITMAP
7C
C6
06
06
0C
18
18
00
18
18
ENDCHAR
STARTCHAR char64
ENCODING 64
SWIDTH 480 0
DWIDTH 8 0
BBX 7 9 0 0
BITMAP
66
CE
DE
DE
DE
DE
CC
60
3C
ENDCHAR
STARTCHAR char65
ENCODING 65
SWIDTH 480 0
DWIDTH 8 0
BBX 7 10 0 0
BITMAP
3C
66
C6
C6
C6
C6
FE
C6
C6
C6
ENDCHAR
STARTCHAR char66
ENCODING 66
SWIDTH 480 0
DWIDTH 8 0
BBX 7 10 0 0
BITMAP
F8
CC
CC
CC
FC
C6
C6
C6
CC
F8
ENDCHAR
STARTCHAR char67
ENCODING 67
SWIDTH 480 0
DWIDTH 8 0
BBX 7 10 0 0
BITMAP
3C
66
C0
C0
C0
C0
C0
C0
C6
7C
ENDCHAR
STARTCHAR char68
ENCODING 68
SWIDTH 480 0
DWIDTH 8 0
BBX 7 10 0 0
BITMAP
FC
C6
C6
C6
C6
C6
C6
C6
CC
F8
ENDCHAR
STARTCHAR char69
ENCODING 69
SWIDTH 480 0
DWIDTH 8 0
BBX 6 10 0 0
BITMAP
FC
C0
C0
C0
FC
C0
C0
C0
C0
FC
ENDCHAR
STARTCHAR char70
ENCODING 70
SWIDTH 480 0
DWIDTH 8 0
BBX 6 10 0 0
BITMAP
FC
C0
C0
C0
FC
C0
C0
C0
C0
C0
ENDCHAR
STARTCHAR char71
ENCODING 71
SWIDTH 480 0
DWIDTH 8 0
BBX 7 10 0 0
BITMAP
3C
66
C0
C0
C0
DE
C6
C6
CC
78
ENDCHAR
STARTCHAR char72
ENCODING 72
SWIDTH 480 0
DWIDTH 8 0
BBX 7 10 0 0
BITMAP
C6
C6
C6
C6
FE
C6
C6
C6
C6
C6
ENDCHAR
STARTCHAR char73
ENCODING 73
SWIDTH 480 0
DWIDTH 8 0
BBX 2 10 3 0
BITMAP
C0
C0
C0
C0
C0
C0
C0
C0
C0
C0
ENDCHAR
STARTCHAR char74
ENCODING 74
SWIDTH 480 0
DWIDTH 8 0
BBX 7 10 0 0
BITMAP
06
06
06
06
06
06
C6
C6
CC
78
ENDCHAR
STARTCHAR char75
ENCODING 75
SWIDTH 480 0
DWIDTH 8 0
BBX 7 10 0 0
BITMAP
C6
CC
D8
F0
E0
E0
F0
D8
CC
C6
ENDCHAR
STARTCHAR char76
ENCODING 76
SWIDTH 480 0
DWIDTH 8 0
BBX 7 10 0 0
BITMAP
C0
C0
C0
C0
C0
C0
C0
C0
C0
FE
ENDCHAR
STARTCHAR char77
ENCODING 77
SWIDTH 480 0
DWIDTH 8 0
BBX 7 10 0 0
BITMAP
82
C6
EE
FE
D6
D6
C6
C6
C6
C6
ENDCHAR
STARTCHAR char78
ENCODING 78
SWIDTH 480 0
DWIDTH 8 0
BBX 7 10 0 0
BITMAP
86
C6
E6
F6
FE
DE
CE
C6
C6
C6
ENDCHAR
STARTCHAR char79
ENCODING 79
SWIDTH 480 0
DWIDTH 8 0
BBX 7 10 0 0
BITMAP
3C
66
C6
C6
C6
C6
C6
C6
CC
78
ENDCHAR
STARTCHAR char80
ENCODING 80
SWIDTH 480 0
DWIDTH 8 0
BBX 7 10 0 0
BITMAP
FC
C6
C6
C6
CC
F8
C0
C0
C0
C0
ENDCHAR
STARTCHAR char81
ENCODING 81
SWIDTH 480 0
DWIDTH 8 0
BBX 7 12 0 -2
BITMAP
3C
66
C6
C6
C6
C6
C6
F6
DC
78
0C
06
ENDCHAR
STARTCHAR char82
ENCODING 82
SWIDTH 480 0
DWIDTH 8 0
BBX 7 10 0 0
BITMAP
FC
C6
C6
C6
CC
F8
CC
CC
C6
C6
ENDCHAR
STARTCHAR char83
ENCODING 83
SWIDTH 480 0
DWIDTH 8 0
BBX 7 10 0 0
BITMAP
3C
66
C0
C0
7C
06
06
06
CC
78
ENDCHAR
STARTCHAR char84
ENCODING 84
SWIDTH 480 0
DWIDTH 8 0
BBX 6 10 1 0
BITMAP
FC
30
30
30
30
30
30
30
30
30
ENDCHAR
STARTCHAR char85
ENCODING 85
SWIDTH 480 0
DWIDTH 8 0
BBX 7 10 0 0
BITMAP
C6
C6
C6
C6
C6
C6
C6
C6
CC
78
ENDCHAR
STARTCHAR char86
ENCODING 86
SWIDTH 480 0
DWIDTH 8 0
BBX 7 10 0 0
BITMAP
C6
C6
C6
C6
C6
C6
C6
6C
38
10
ENDCHAR
STARTCHAR char87
ENCODING 87
SWIDTH 480 0
DWIDTH 8 0
BBX 7 10 0 0
BITMAP
C6
C6
C6
C6
C6
D6
D6
FE
EE
C6
ENDCHAR
STARTCHAR char88
ENCODING 88
SWIDTH 480 0
DWIDTH 8 0
BBX 7 10 0 0
BITMAP
C6
C6
6C
6C
38
38
6C
6C
C6
C6
ENDCHAR
STARTCHAR char89
ENCODING 89
SWIDTH 480 0
DWIDTH 8 0
BBX 6 10 1 0
BITMAP
8C
8C
D8
D8
70
30
60
60
C0
C0
ENDCHAR
STARTCHAR char90
ENCODING 90
SWIDTH 480 0
DWIDTH 8 0
BBX 7 10 0 0
BITMAP
FE
06
06
0C
18
30
60
C0
C0
FE
ENDCHAR
STARTCHAR char91
ENCODING 91
SWIDTH 480 0
DWIDTH 8 0
BBX 2 10 2 0
BITMAP
C0
C0
C0
C0
C0
C0
C0
C0
C0
C0
ENDCHAR
STARTCHAR char92
ENCODING 92
SWIDTH 480 0
DWIDTH 8 0
BBX 5 9 1 0
BITMAP
80
C0
40
60
20
30
10
18
08
ENDCHAR
STARTCHAR char93
ENCODING 93
SWIDTH 480 0
DWIDTH 8 0
BBX 2 10 4 0
BITMAP
C0
C0
C0
C0
C0
C0
C0
C0
C0
C0
ENDCHAR
STARTCHAR char94
ENCODING 94
SWIDTH 480 0
DWIDTH 8 0
BBX 5 3 1 8
BITMAP
20
70
D8
ENDCHAR
STARTCHAR char95
ENCODING 95
SWIDTH 480 0
DWIDTH 8 0
BBX 0 0 0 0
BITMAP
ENDCHAR
STARTCHAR char96
ENCODING 96
SWIDTH 480 0
DWIDTH 8 0
BBX 3 1 2 9
BITMAP
E0
ENDCHAR
STARTCHAR char97
ENCODING 97
SWIDTH 480 0
DWIDTH 8 0
BBX 7 7 0 0
BITMAP
3C
06
3E
66
C6
C6
7E
ENDCHAR
STARTCHAR char98
ENCODING 98
SWIDTH 480 0
DWIDTH 8 0
BBX 7 10 0 0
BITMAP
C0
C0
C0
FC
C6
C6
C6
C6
CC
F8
ENDCHAR
STARTCHAR char99
ENCODING 99
SWIDTH 480 0
DWIDTH 8 0
BBX 7 7 0 0
BITMAP
3C
66
C0
C0
C0
C6
7C
ENDCHAR
STARTCHAR char100
ENCODING 100
SWIDTH 480 0
DWIDTH 8 0
BBX 7 10 0 0
BITMAP
06
06
06
3E
66
C6
C6
C6
C6
7E
ENDCHAR
STARTCHAR char101
ENCODING 101
SWIDTH 480 0
DWIDTH 8 0
BBX 7 7 0 0
BITMAP
3C
66
C6
CC
F8
C0
7C
ENDCHAR
STARTCHAR char102
ENCODING 102
SWIDTH 480 0
DWIDTH 8 0
BBX 6 10 0 0
BITMAP
3C
64
64
60
F0
60
60
60
60
60
ENDCHAR
STARTCHAR char103
ENCODING 103
SWIDTH 480 0
DWIDTH 8 0
BBX 7 10 0 -3
BITMAP
3E
66
C6
C6
C6
7E
06
06
0C
78
ENDCHAR
STARTCHAR char104
ENCODING 104
SWIDTH 480 0
DWIDTH 8 0
BBX 7 10 0 0
BITMAP
C0
C0
C0
FC
C6
C6
C6
C6
C6
C6
ENDCHAR
STARTCHAR char105
ENCODING 105
SWIDTH 480 0
DWIDTH 8 0
BBX 2 10 3 0
BITMAP
C0
C0
00
C0
C0
C0
C0
C0
C0
C0
ENDCHAR
STARTCHAR char106
ENCODING 106
SWIDTH 480 0
DWIDTH 8 0
BBX 6 13 1 -3
BITMAP
0C
0C
00
0C
0C
0C
0C
0C
0C
0C
0C
98
F0
ENDCHAR
STARTCHAR char107
ENCODING 107
SWIDTH 480 0
DWIDTH 8 0
BBX 7 10 0 0
BITMAP
C0
C0
C0
CC
D8
F0
F0
F8
CC
C6
ENDCHAR
STARTCHAR char108
ENCODING 108
SWIDTH 480 0
DWIDTH 8 0
BBX 3 10 2 0
BITMAP
E0
60
60
60
60
60
60
60
60
60
ENDCHAR
STARTCHAR char109
ENCODING 109
SWIDTH 480 0
DWIDTH 8 0
BBX 7 7 0 0
BITMAP
FC
D6
D6
D6
C6
C6
C6
ENDCHAR
STARTCHAR char110
ENCODING 110
SWIDTH 480 0
DWIDTH 8 0
BBX 7 7 0 0
BITMAP
FC
C6
C6
C6
C6
C6
C6
ENDCHAR
STARTCHAR char111
ENCODING 111
SWIDTH 480 0
DWIDTH 8 0
BBX 7 7 0 0
BITMAP
3C
66
C6
C6
C6
CC
78
ENDCHAR
STARTCHAR char112
ENCODING 112
SWIDTH 480 0
DWIDTH 8 0
BBX 7 10 0 -3
BITMAP
FC
C6
C6
C6
CC
F8
C0
C0
C0
C0
ENDCHAR
STARTCHAR char113
ENCODING 113
SWIDTH 480 0
DWIDTH 8 0
BBX 7 10 0 -3
BITMAP
3E
66
C6
C6
C6
7E
06
06
06
06
ENDCHAR
STARTCHAR char114
ENCODING 114
SWIDTH 480 0
DWIDTH 8 0
BBX 7 7 0 0
BITMAP
FC
C6
C0
C0
C0
C0
C0
ENDCHAR
STARTCHAR char115
ENCODING 115
SWIDTH 480 0
DWIDTH 8 0
BBX 7 7 0 0
BITMAP
3C
66
C0
7C
06
CC
78
ENDCHAR
STARTCHAR char116
ENCODING 116
SWIDTH 480 0
DWIDTH 8 0
BBX 6 10 1 0
BITMAP
10
30
30
FC
30
30
30
30
30
1C
ENDCHAR
STARTCHAR char117
ENCODING 117
SWIDTH 480 0
DWIDTH 8 0
BBX 7 7 0 0
BITMAP
C6
C6
C6
C6
C6
CC
78
ENDCHAR
STARTCHAR char118
ENCODING 118
SWIDTH 480 0
DWIDTH 8 0
BBX 6 7 1 0
BITMAP
8C
8C
8C
8C
D8
70
20
ENDCHAR
STARTCHAR char119
ENCODING 119
SWIDTH 480 0
DWIDTH 8 0
BBX 7 7 0 0
BITMAP
C6
C6
C6
D6
D6
FE
C6
ENDCHAR
STARTCHAR char120
ENCODING 120
SWIDTH 480 0
DWIDTH 8 0
BBX 7 7 0 0
BITMAP
C6
6C
38
10
38
6C
C6
ENDCHAR
STARTCHAR char121
ENCODING 121
SWIDTH 480 0
DWIDTH 8 0
BBX 7 10 0 -3
BITMAP
C6
C6
C6
C6
C6
7E
06
06
0C
78
ENDCHAR
STARTCHAR char122
ENCODING 122
SWIDTH 480 0
DWIDTH 8 0
BBX 7 7 0 0
BITMAP
FE
0C
18
30
60
C0
FE
ENDCHAR
STARTCHAR char123
ENCODING 123
SWIDTH 480 0
DWIDTH 8 0
BBX 6 10 1 0
BITMAP
1C
30
30
30
30
E0
30
30
30
30
ENDCHAR
STARTCHAR char124
ENCODING 124
SWIDTH 480 0
DWIDTH 8 0
BBX 2 10 3 0
BITMAP
C0
C0
C0
C0
C0
00
C0
C0
C0
C0
ENDCHAR
STARTCHAR char125
ENCODING 125
SWIDTH 480 0
DWIDTH 8 0
BBX 6 10 1 0
BITMAP
E0
30
30
30
30
1C
30
30
30
30
ENDCHAR
STARTCHAR char126
ENCODING 126
SWIDTH 480 0
DWIDTH 8 0
BBX 0 0 0 0
BITMAP
ENDCHAR
STARTCHAR char127
ENCODING 127
SWIDTH 480 0
DWIDTH 8 0
BBX 7 6 0 2
BITMAP
10
38
6C
C6
C6
FE
ENDCHAR
STARTCHAR char128
ENCODING 128
SWIDTH 480 0
DWIDTH 8 0
BBX 7 11 0 -1
BITMAP
3C
66
C0
C0
C0
C0
C0
C6
7C
18
70
ENDCHAR
STARTCHAR char129
ENCODING 129
SWIDTH 480 0
DWIDTH 8 0
BBX 7 10 0 0
BITMAP
6C
6C
00
C6
C6
C6
C6
C6
CC
78
ENDCHAR
STARTCHAR char130
ENCODING 130
SWIDTH 480 0
DWIDTH 8 0
BBX 7 11 0 0
BITMAP
0C
18
10
00
7C
C6
C6
CC
F8
C0
7C
ENDCHAR
STARTCHAR char131
ENCODING 131
SWIDTH 480 0
DWIDTH 8 0
BBX 7 11 0 0
BITMAP
08
1C
26
00
3C
06
3E
66
C6
C6
7E
ENDCHAR
STARTCHAR char132
ENCODING 132
SWIDTH 480 0
DWIDTH 8 0
BBX 7 10 0 0
BITMAP
6C
6C
00
3C
06
3E
66
C6
C6
7E
ENDCHAR
STARTCHAR char133
ENCODING 133
SWIDTH 480 0
DWIDTH 8 0
BBX 7 11 0 0
BITMAP
20
10
18
00
3C
06
3E
66
C6
C6
7E
ENDCHAR
STARTCHAR char134
ENCODING 134
SWIDTH 480 0
DWIDTH 8 0
BBX 7 11 0 0
BITMAP
2C
2C
18
00
3C
06
3E
66
C6
C6
7E
ENDCHAR
STARTCHAR char135
ENCODING 135
SWIDTH 480 0
DWIDTH 8 0
BBX 6 8 1 -1
BITMAP
78
CC
80
80
8C
F8
30
E0
ENDCHAR
STARTCHAR char136
ENCODING 136
SWIDTH 480 0
DWIDTH 8 0
BBX 7 11 0 0
BITMAP
10
38
6C
00
7C
C6
C6
CC
F8
C0
7C
ENDCHAR
STARTCHAR char137
ENCODING 137
SWIDTH 480 0
DWIDTH 8 0
BBX 7 10 0 0
BITMAP
6C
6C
00
7C
C6
C6
CC
F8
C0
7C
ENDCHAR
STARTCHAR char138
ENCODING 138
SWIDTH 480 0
DWIDTH 8 0
BBX 7 11 0 0
BITMAP
60
20
10
00
7C
C6
C6
CC
F8
C0
7C
ENDCHAR
STARTCHAR char139
ENCODING 139
SWIDTH 480 0
DWIDTH 8 0
BBX 6 10 1 0
BITMAP
CC
CC
00
30
30
30
30
30
30
30
ENDCHAR
STARTCHAR char140
ENCODING 140
SWIDTH 480 0
DWIDTH 8 0
BBX 6 11 1 0
BITMAP
30
78
CC
00
30
30
30
30
30
30
30
ENDCHAR
STARTCHAR char141
ENCODING 141
SWIDTH 480 0
DWIDTH 8 0
BBX 4 11 1 0
BITMAP
C0
60
30
00
30
30
30
30
30
30
30
ENDCHAR
STARTCHAR char142
ENCODING 142
SWIDTH 480 0
DWIDTH 8 0
BBX 7 10 0 0
BITMAP
3C
66
C6
C6
C6
C6
FE
C6
C6
C6
ENDCHAR
STARTCHAR char143
ENCODING 143
SWIDTH 480 0
DWIDTH 8 0
BBX 7 12 0 0
BITMAP
38
6C
6C
38
6C
C6
C6
C6
FE
C6
C6
C6
ENDCHAR
STARTCHAR char144
ENCODING 144
SWIDTH 480 0
DWIDTH 8 0
BBX 6 12 0 0
BITMAP
18
10
20
FC
C0
C0
FC
C0
C0
C0
C0
FC
ENDCHAR
STARTCHAR char145
ENCODING 145
SWIDTH 480 0
DWIDTH 8 0
BBX 7 7 0 0
BITMAP
7E
1A
7A
DE
D8
D8
7E
ENDCHAR
STARTCHAR char146
ENCODING 146
SWIDTH 480 0
DWIDTH 8 0
BBX 7 10 0 0
BITMAP
3E
38
38
78
5E
58
F8
D8
D8
DE
ENDCHAR
STARTCHAR char147
ENCODING 147
SWIDTH 480 0
DWIDTH 8 0
BBX 7 11 0 0
BITMAP
10
38
6C
00
3C
66
C6
C6
C6
CC
78
ENDCHAR
STARTCHAR char148
ENCODING 148
SWIDTH 480 0
DWIDTH 8 0
BBX 7 10 0 0
BITMAP
6C
6C
00
3C
66
C6
C6
C6
CC
78
ENDCHAR
STARTCHAR char149
ENCODING 149
SWIDTH 480 0
DWIDTH 8 0
BBX 7 11 0 0
BITMAP
60
20
10
00
3C
66
C6
C6
C6
CC
78
ENDCHAR
STARTCHAR char150
ENCODING 150
SWIDTH 480 0
DWIDTH 8 0
BBX 7 11 0 0
BITMAP
10
38
6C
00
C6
C6
C6
C6
C6
CC
78
ENDCHAR
STARTCHAR char151
ENCODING 151
SWIDTH 480 0
DWIDTH 8 0
BBX 7 11 0 0
BITMAP
60
20
10
00
C6
C6
C6
C6
C6
CC
78
ENDCHAR
STARTCHAR char152
ENCODING 152
SWIDTH 480 0
DWIDTH 8 0
BBX 7 13 0 -3
BITMAP
6C
6C
00
C6
C6
C6
C6
C6
7E
06
06
0C
78
ENDCHAR
STARTCHAR char153
ENCODING 153
SWIDTH 480 0
DWIDTH 8 0
BBX 7 11 0 0
BITMAP
6C
3C
66
C6
C6
C6
C6
C6
C6
CC
78
ENDCHAR
STARTCHAR char154
ENCODING 154
SWIDTH 480 0
DWIDTH 8 0
BBX 7 11 0 0
BITMAP
6C
00
C6
C6
C6
C6
C6
C6
C6
CC
78
ENDCHAR
STARTCHAR char155
ENCODING 155
SWIDTH 480 0
DWIDTH 8 0
BBX 6 9 1 0
BITMAP
20
20
78
EC
A0
A0
A0
AC
F8
ENDCHAR
STARTCHAR char156
ENCODING 156
SWIDTH 480 0
DWIDTH 8 0
BBX 7 10 0 0
BITMAP
1E
32
30
30
78
30
30
30
F0
DE
ENDCHAR
STARTCHAR char157
ENCODING 157
SWIDTH 480 0
DWIDTH 8 0
BBX 6 9 1 0
BITMAP
CC
CC
78
30
FC
30
78
30
30
ENDCHAR
STARTCHAR char158
ENCODING 158
SWIDTH 480 0
DWIDTH 8 0
BBX 7 10 0 0
BITMAP
FC
C6
C6
C6
CC
F8
CC
DE
CC
CC
ENDCHAR
STARTCHAR char159
ENCODING 159
SWIDTH 480 0
DWIDTH 8 0
BBX 7 11 0 -1
BITMAP
1C
36
36
30
7E
30
30
30
30
30
F0
ENDCHAR
STARTCHAR char160
ENCODING 160
SWIDTH 480 0
DWIDTH 8 0
BBX 7 11 0 0
BITMAP
0C
18
10
00
3C
06
3E
66
C6
C6
7E
ENDCHAR
STARTCHAR char161
ENCODING 161
SWIDTH 480 0
DWIDTH 8 0
BBX 3 11 3 0
BITMAP
20
60
C0
00
C0
C0
C0
C0
C0
C0
C0
ENDCHAR
STARTCHAR char162
ENCODING 162
SWIDTH 480 0
DWIDTH 8 0
BBX 7 11 0 0
BITMAP
0C
18
10
00
3C
66
C6
C6
C6
CC
78
ENDCHAR
STARTCHAR char163
ENCODING 163
SWIDTH 480 0
DWIDTH 8 0
BBX 7 11 0 0
BITMAP
18
10
20
00
C6
C6
C6
C6
C6
CC
78
ENDCHAR
STARTCHAR char164
ENCODING 164
SWIDTH 480 0
DWIDTH 8 0
BBX 7 10 0 0
BITMAP
6C
D8
00
FC
C6
C6
C6
C6
C6
C6
ENDCHAR
STARTCHAR char165
ENCODING 165
SWIDTH 480 0
DWIDTH 8 0
BBX 7 12 0 0
BITMAP
6C
D8
00
C6
E6
F6
FE
DE
CE
C6
C6
C6
ENDCHAR
STARTCHAR char166
ENCODING 166
SWIDTH 480 0
DWIDTH 8 0
BBX 5 5 1 5
BITMAP
70
18
78
D8
98
ENDCHAR
STARTCHAR char167
ENCODING 167
SWIDTH 480 0
DWIDTH 8 0
BBX 5 5 1 5
BITMAP
70
D8
98
98
98
ENDCHAR
STARTCHAR char168
ENCODING 168
SWIDTH 480 0
DWIDTH 8 0
BBX 7 10 0 0
BITMAP
18
18
00
18
18
70
C0
C0
C6
7C
ENDCHAR
STARTCHAR char169
ENCODING 169
SWIDTH 480 0
DWIDTH 8 0
BBX 6 4 0 2
BITMAP
FC
C0
C0
C0
ENDCHAR
STARTCHAR char170
ENCODING 170
SWIDTH 480 0
DWIDTH 8 0
BBX 6 4 0 2
BITMAP
FC
0C
0C
0C
ENDCHAR
STARTCHAR char171
ENCODING 171
SWIDTH 480 0
DWIDTH 8 0
BBX 7 13 0 -2
BITMAP
60
E0
62
66
6C
18
30
60
C0
9C
36
0C
18
ENDCHAR
STARTCHAR char172
ENCODING 172
SWIDTH 480 0
DWIDTH 8 0
BBX 7 13 0 -2
BITMAP
60
E0
62
66
6C
18
30
66
CE
96
3E
06
06
ENDCHAR
STARTCHAR char173
ENCODING 173
SWIDTH 480 0
DWIDTH 8 0
BBX 4 10 2 0
BITMAP
60
60
00
60
60
F0
F0
F0
F0
60
ENDCHAR
STARTCHAR char174
ENCODING 174
SWIDTH 480 0
DWIDTH 8 0
BBX 7 5 0 2
BITMAP
36
6C
D8
6C
36
ENDCHAR
STARTCHAR char175
ENCODING 175
SWIDTH 480 0
DWIDTH 8 0
BBX 7 5 0 2
BITMAP
D8
6C
36
6C
D8
ENDCHAR
STARTCHAR char176
ENCODING 176
SWIDTH 480 0
DWIDTH 8 0
BBX 7 16 1 -4
BITMAP
22
88
22
88
22
88
22
88
22
88
22
88
22
88
22
88
ENDCHAR
STARTCHAR char177
ENCODING 177
SWIDTH 480 0
DWIDTH 8 0
BBX 8 16 0 -4
BITMAP
55
AA
55
AA
55
AA
55
AA
55
AA
55
AA
55
AA
55
AA
ENDCHAR
STARTCHAR char178
ENCODING 178
SWIDTH 480 0
DWIDTH 8 0
BBX 8 16 0 -4
BITMAP
DD
77
DD
77
DD
77
DD
77
DD
77
DD
77
DD
77
DD
77
ENDCHAR
STARTCHAR char179
ENCODING 179
SWIDTH 480 0
DWIDTH 8 0
BBX 2 16 3 -4
BITMAP
C0
C0
C0
C0
C0
C0
C0
C0
C0
C0
C0
C0
C0
C0
C0
C0
ENDCHAR
STARTCHAR char180
ENCODING 180
SWIDTH 480 0
DWIDTH 8 0
BBX 5 16 0 -4
BITMAP
18
18
18
18
18
18
18
F8
18
18
18
18
18
18
18
18
ENDCHAR
STARTCHAR char181
ENCODING 181
SWIDTH 480 0
DWIDTH 8 0
BBX 5 16 0 -4
BITMAP
18
18
18
18
18
18
F8
18
18
F8
18
18
18
18
18
18
ENDCHAR
STARTCHAR char182
ENCODING 182
SWIDTH 480 0
DWIDTH 8 0
BBX 7 16 0 -4
BITMAP
66
66
66
66
66
66
66
E6
66
66
66
66
66
66
66
66
ENDCHAR
STARTCHAR char183
ENCODING 183
SWIDTH 480 0
DWIDTH 8 0
BBX 7 9 0 -4
BITMAP
FE
66
66
66
66
66
66
66
66
ENDCHAR
STARTCHAR char184
ENCODING 184
SWIDTH 480 0
DWIDTH 8 0
BBX 5 10 0 -4
BITMAP
F8
18
18
F8
18
18
18
18
18
18
ENDCHAR
STARTCHAR char185
ENCODING 185
SWIDTH 480 0
DWIDTH 8 0
BBX 7 16 0 -4
BITMAP
66
66
66
66
66
66
E6
06
06
E6
66
66
66
66
66
66
ENDCHAR
STARTCHAR char186
ENCODING 186
SWIDTH 480 0
DWIDTH 8 0
BBX 5 16 2 -4
BITMAP
98
98
98
98
98
98
98
98
98
98
98
98
98
98
98
98
ENDCHAR
STARTCHAR char187
ENCODING 187
SWIDTH 480 0
DWIDTH 8 0
BBX 7 10 0 -4
BITMAP
FE
06
06
E6
66
66
66
66
66
66
ENDCHAR
STARTCHAR char188
ENCODING 188
SWIDTH 480 0
DWIDTH 8 0
BBX 7 8 0 4
BITMAP
66
66
66
66
66
66
E6
06
ENDCHAR
STARTCHAR char189
ENCODING 189
SWIDTH 480 0
DWIDTH 8 0
BBX 7 8 0 4
BITMAP
66
66
66
66
66
66
66
FE
ENDCHAR
STARTCHAR char190
ENCODING 190
SWIDTH 480 0
DWIDTH 8 0
BBX 5 8 0 4
BITMAP
18
18
18
18
18
18
F8
18
ENDCHAR
STARTCHAR char191
ENCODING 191
SWIDTH 480 0
DWIDTH 8 0
BBX 5 9 0 -4
BITMAP
F8
18
18
18
18
18
18
18
18
ENDCHAR
STARTCHAR char192
ENCODING 192
SWIDTH 480 0
DWIDTH 8 0
BBX 5 8 3 4
BITMAP
C0
C0
C0
C0
C0
C0
C0
F8
ENDCHAR
STARTCHAR char193
ENCODING 193
SWIDTH 480 0
DWIDTH 8 0
BBX 8 8 0 4
BITMAP
18
18
18
18
18
18
18
FF
ENDCHAR
STARTCHAR char194
ENCODING 194
SWIDTH 480 0
DWIDTH 8 0
BBX 8 9 0 -4
BITMAP
FF
18
18
18
18
18
18
18
18
ENDCHAR
STARTCHAR char195
ENCODING 195
SWIDTH 480 0
DWIDTH 8 0
BBX 5 16 3 -4
BITMAP
C0
C0
C0
C0
C0
C0
C0
F8
C0
C0
C0
C0
C0
C0
C0
C0
ENDCHAR
STARTCHAR char196
ENCODING 196
SWIDTH 480 0
DWIDTH 8 0
BBX 8 1 0 4
BITMAP
FF
ENDCHAR
STARTCHAR char197
ENCODING 197
SWIDTH 480 0
DWIDTH 8 0
BBX 8 16 0 -4
BITMAP
18
18
18
18
18
18
18
FF
18
18
18
18
18
18
18
18
ENDCHAR
STARTCHAR char198
ENCODING 198
SWIDTH 480 0
DWIDTH 8 0
BBX 5 16 3 -4
BITMAP
C0
C0
C0
C0
C0
C0
F8
C0
C0
F8
C0
C0
C0
C0
C0
C0
ENDCHAR
STARTCHAR char199
ENCODING 199
SWIDTH 480 0
DWIDTH 8 0
BBX 6 16 2 -4
BITMAP
98
98
98
98
98
98
98
9C
98
98
98
98
98
98
98
98
ENDCHAR
STARTCHAR char200
ENCODING 200
SWIDTH 480 0
DWIDTH 8 0
BBX 6 8 2 4
BITMAP
98
98
98
98
98
98
9C
80
ENDCHAR
STARTCHAR char201
ENCODING 201
SWIDTH 480 0
DWIDTH 8 0
BBX 6 10 2 -4
BITMAP
FC
80
80
9C
98
98
98
98
98
98
ENDCHAR
STARTCHAR char202
ENCODING 202
SWIDTH 480 0
DWIDTH 8 0
BBX 8 7 0 5
BITMAP
66
66
66
66
66
66
E7
ENDCHAR
STARTCHAR char203
ENCODING 203
SWIDTH 480 0
DWIDTH 8 0
BBX 8 10 0 -4
BITMAP
FF
00
00
E7
66
66
66
66
66
66
ENDCHAR
STARTCHAR char204
ENCODING 204
SWIDTH 480 0
DWIDTH 8 0
BBX 6 16 2 -4
BITMAP
98
98
98
98
98
98
9C
80
80
9C
98
98
98
98
98
98
ENDCHAR
STARTCHAR char205
ENCODING 205
SWIDTH 480 0
DWIDTH 8 0
BBX 8 1 0 5
BITMAP
FF
ENDCHAR
STARTCHAR char206
ENCODING 206
SWIDTH 480 0
DWIDTH 8 0
BBX 8 16 0 -4
BITMAP
66
66
66
66
66
66
E7
00
00
E7
66
66
66
66
66
66
ENDCHAR
STARTCHAR char207
ENCODING 207
SWIDTH 480 0
DWIDTH 8 0
BBX 8 7 0 5
BITMAP
18
18
18
18
18
18
FF
ENDCHAR
STARTCHAR char208
ENCODING 208
SWIDTH 480 0
DWIDTH 8 0
BBX 8 8 0 4
BITMAP
66
66
66
66
66
66
66
FF
ENDCHAR
STARTCHAR char209
ENCODING 209
SWIDTH 480 0
DWIDTH 8 0
BBX 8 10 0 -4
BITMAP
FF
00
00
FF
18
18
18
18
18
18
ENDCHAR
STARTCHAR char210
ENCODING 210
SWIDTH 480 0
DWIDTH 8 0
BBX 8 9 0 -4
BITMAP
FF
66
66
66
66
66
66
66
66
ENDCHAR
STARTCHAR char211
ENCODING 211
SWIDTH 480 0
DWIDTH 8 0
BBX 6 8 2 4
BITMAP
98
98
98
98
98
98
98
FC
ENDCHAR
STARTCHAR char212
ENCODING 212
SWIDTH 480 0
DWIDTH 8 0
BBX 5 8 3 4
BITMAP
C0
C0
C0
C0
C0
C0
F8
C0
ENDCHAR
STARTCHAR char213
ENCODING 213
SWIDTH 480 0
DWIDTH 8 0
BBX 5 10 3 -4
BITMAP
F8
C0
C0
F8
C0
C0
C0
C0
C0
C0
ENDCHAR
STARTCHAR char214
ENCODING 214
SWIDTH 480 0
DWIDTH 8 0
BBX 6 9 2 -4
BITMAP
FC
98
98
98
98
98
98
98
98
ENDCHAR
STARTCHAR char215
ENCODING 215
SWIDTH 480 0
DWIDTH 8 0
BBX 8 16 0 -4
BITMAP
66
66
66
66
66
66
66
FF
66
66
66
66
66
66
66
66
ENDCHAR
STARTCHAR char216
ENCODING 216
SWIDTH 480 0
DWIDTH 8 0
BBX 8 16 0 -4
BITMAP
18
18
18
18
18
18
FF
00
00
FF
18
18
18
18
18
18
ENDCHAR
STARTCHAR char217
ENCODING 217
SWIDTH 480 0
DWIDTH 8 0
BBX 5 8 0 4
BITMAP
18
18
18
18
18
18
18
F8
ENDCHAR
STARTCHAR char218
ENCODING 218
SWIDTH 480 0
DWIDTH 8 0
BBX 5 9 3 -4
BITMAP
F8
C0
C0
C0
C0
C0
C0
C0
C0
ENDCHAR
STARTCHAR char219
ENCODING 219
SWIDTH 480 0
DWIDTH 8 0
BBX 8 16 0 -4
BITMAP
FF
FF
FF
FF
FF
FF
FF
FF
FF
FF
FF
FF
FF
FF
FF
FF
ENDCHAR
STARTCHAR char220
ENCODING 220
SWIDTH 480 0
DWIDTH 8 0
BBX 8 8 0 -4
BITMAP
FF
FF
FF
FF
FF
FF
FF
FF
ENDCHAR
STARTCHAR char221
ENCODING 221
SWIDTH 480 0
DWIDTH 8 0
BBX 4 16 0 -4
BITMAP
F0
F0
F0
F0
F0
F0
F0
F0
F0
F0
F0
F0
F0
F0
F0
F0
ENDCHAR
STARTCHAR char222
ENCODING 222
SWIDTH 480 0
DWIDTH 8 0
BBX 4 16 4 -4
BITMAP
F0
F0
F0
F0
F0
F0
F0
F0
F0
F0
F0
F0
F0
F0
F0
F0
ENDCHAR
STARTCHAR char223
ENCODING 223
SWIDTH 480 0
DWIDTH 8 0
BBX 8 7 0 5
BITMAP
FF
FF
FF
FF
FF
FF
FF
ENDCHAR
STARTCHAR char224
ENCODING 224
SWIDTH 480 0
DWIDTH 8 0
BBX 7 6 0 1
BITMAP
76
DC
CC
CC
DE
76
ENDCHAR
STARTCHAR char225
ENCODING 225
SWIDTH 480 0
DWIDTH 8 0
BBX 7 9 0 0
BITMAP
3C
66
C6
CC
C6
C6
C6
CC
D8
ENDCHAR
STARTCHAR char226
ENCODING 226
SWIDTH 480 0
DWIDTH 8 0
BBX 7 9 0 0
BITMAP
FE
66
62
60
60
60
60
60
F0
ENDCHAR
STARTCHAR char227
ENCODING 227
SWIDTH 480 0
DWIDTH 8 0
BBX 7 8 0 0
BITMAP
02
FE
6C
6C
6C
6C
6C
6C
ENDCHAR
STARTCHAR char228
ENCODING 228
SWIDTH 480 0
DWIDTH 8 0
BBX 7 9 0 0
BITMAP
C6
62
30
18
18
30
62
C6
FE
ENDCHAR
STARTCHAR char229
ENCODING 229
SWIDTH 480 0
DWIDTH 8 0
BBX 7 7 0 0
BITMAP
3E
6C
CC
CC
CC
D8
70
ENDCHAR
STARTCHAR char230
ENCODING 230
SWIDTH 480 0
DWIDTH 8 0
BBX 6 8 1 -1
BITMAP
CC
CC
CC
CC
D8
F0
C0
C0
ENDCHAR
STARTCHAR char231
ENCODING 231
SWIDTH 480 0
DWIDTH 8 0
BBX 7 8 0 0
BITMAP
76
DC
18
18
18
18
18
18
ENDCHAR
STARTCHAR char232
ENCODING 232
SWIDTH 480 0
DWIDTH 8 0
BBX 6 9 1 0
BITMAP
30
FC
B4
B4
B4
B4
FC
30
30
ENDCHAR
STARTCHAR char233
ENCODING 233
SWIDTH 480 0
DWIDTH 8 0
BBX 7 9 0 0
BITMAP
66
C6
C6
FE
C6
C6
C6
CC
78
ENDCHAR
STARTCHAR char234
ENCODING 234
SWIDTH 480 0
DWIDTH 8 0
BBX 7 10 0 0
BITMAP
3C
66
C6
C6
C6
C6
6C
28
AA
EE
ENDCHAR
STARTCHAR char235
ENCODING 235
SWIDTH 480 0
DWIDTH 8 0
BBX 6 10 1 0
BITMAP
3C
60
30
18
7C
CC
8C
8C
98
F0
ENDCHAR
STARTCHAR char236
ENCODING 236
SWIDTH 480 0
DWIDTH 8 0
BBX 8 4 0 3
BITMAP
7E
DB
DB
7E
ENDCHAR
STARTCHAR char237
ENCODING 237
SWIDTH 480 0
DWIDTH 8 0
BBX 8 9 0 0
BITMAP
03
06
7E
CF
DB
F3
7E
60
C0
ENDCHAR
STARTCHAR char238
ENCODING 238
SWIDTH 480 0
DWIDTH 8 0
BBX 5 10 1 0
BITMAP
38
60
C0
C0
F8
C0
C0
C0
60
38
ENDCHAR
STARTCHAR char239
ENCODING 239
SWIDTH 480 0
DWIDTH 8 0
BBX 7 9 0 0
BITMAP
3C
66
C6
C6
C6
C6
C6
C6
C6
ENDCHAR
STARTCHAR char240
ENCODING 240
SWIDTH 480 0
DWIDTH 8 0
BBX 7 7 0 1
BITMAP
FE
00
00
FE
00
00
FE
ENDCHAR
STARTCHAR char241
ENCODING 241
SWIDTH 480 0
DWIDTH 8 0
BBX 6 7 1 1
BITMAP
30
30
FC
30
30
00
FC
ENDCHAR
STARTCHAR char242
ENCODING 242
SWIDTH 480 0
DWIDTH 8 0
BBX 6 9 1 0
BITMAP
60
30
18
0C
18
30
60
00
FC
ENDCHAR
STARTCHAR char243
ENCODING 243
SWIDTH 480 0
DWIDTH 8 0
BBX 6 9 1 0
BITMAP
18
30
60
C0
60
30
18
00
FC
ENDCHAR
STARTCHAR char244
ENCODING 244
SWIDTH 480 0
DWIDTH 8 0
BBX 5 13 3 -4
BITMAP
70
D8
D8
C0
C0
C0
C0
C0
C0
C0
C0
C0
C0
ENDCHAR
STARTCHAR char245
ENCODING 245
SWIDTH 480 0
DWIDTH 8 0
BBX 5 12 0 0
BITMAP
18
18
18
18
18
18
18
18
18
D8
D8
70
ENDCHAR
STARTCHAR char246
ENCODING 246
SWIDTH 480 0
DWIDTH 8 0
BBX 6 7 1 1
BITMAP
30
30
00
FC
00
30
30
ENDCHAR
STARTCHAR char247
ENCODING 247
SWIDTH 480 0
DWIDTH 8 0
BBX 7 5 0 2
BITMAP
76
DC
00
76
DC
ENDCHAR
STARTCHAR char248
ENCODING 248
SWIDTH 480 0
DWIDTH 8 0
BBX 5 3 1 7
BITMAP
78
C8
C8
ENDCHAR
STARTCHAR char249
ENCODING 249
SWIDTH 480 0
DWIDTH 8 0
BBX 2 2 3 3
BITMAP
C0
40
ENDCHAR
STARTCHAR char250
ENCODING 250
SWIDTH 480 0
DWIDTH 8 0
BBX 0 0 0 0
BITMAP
ENDCHAR
STARTCHAR char251
ENCODING 251
SWIDTH 480 0
DWIDTH 8 0
BBX 8 10 0 0
BITMAP
03
02
06
04
0C
08
D8
F0
70
20
ENDCHAR
STARTCHAR char252
ENCODING 252
SWIDTH 480 0
DWIDTH 8 0
BBX 6 5 0 5
BITMAP
FC
C4
C4
C4
C4
ENDCHAR
STARTCHAR char253
ENCODING 253
SWIDTH 480 0
DWIDTH 8 0
BBX 5 5 0 5
BITMAP
78
C8
18
30
60
ENDCHAR
STARTCHAR char254
ENCODING 254
SWIDTH 480 0
DWIDTH 8 0
BBX 5 7 1 1
BITMAP
D8
D8
D8
D8
D8
D8
D8
ENDCHAR
STARTCHAR char255
ENCODING 255
SWIDTH 480 0
DWIDTH 8 0
BBX 0 0 0 0
BITMAP
ENDCHAR
ENDFONT
